# xmcd
#
# Track frame offsets: 
#        150
#        18040
#        43730
#        61511
#        83005
#        102660
#        115237
#        137497
#        150611
#        168226
#        194425
#        206528
#        226347
#        245799
#        259990
#        274797
#        288794
#        302601
#        318115
#        332595
#
# Disc length: 4605 seconds
#
# Revision: 3
# Processed by: cddbd v1.5.2PL0 Copyright (c) Steve Scherf et al.
# Submitted via: ExactAudioCopy v0.99pb4
#
DISCID=0b11fb14
DTITLE=Keven Bloody Wilson - 20 Years of KEV
DYEAR=2006
DGENRE=Comedy
TTITLE0=I Gave Up Wanking
TTITLE1=Festival of Life
TTITLE2=Kev's Courtin' Song
TTITLE3=Mick The Master Farter
TTITLE4=The Pubic Hair Song
TTITLE5=Hey Santa Claus
TTITLE6=Dicktaphone
TTITLE7=It Was Over
TTITLE8=Manuel The Bandito
TTITLE9=The Kid (He Swears A Bit)
TTITLE10=Supa Mega Fugly
TTITLE11=Double Decker Dog
TTITLE12=The Featherbrain Championship
TTITLE13=Ollie and Olga
TTITLE14=The Builder
TTITLE15=Me Dick (Just Dailed Your Number)
TTITLE16=She's The Sorta Shelia
TTITLE17=Hello John (Beeped Version)
TTITLE18=Grandad's Got A Bone
TTITLE19=The Local
EXTD=Kevin bloody wilson best of from the last 20 years Disc 1 YEAR: 2
EXTD=006
EXTT0=
EXTT1=
EXTT2=
EXTT3=
EXTT4=
EXTT5=
EXTT6=
EXTT7=
EXTT8=
EXTT9=
EXTT10=
EXTT11=
EXTT12=
EXTT13=
EXTT14=
EXTT15=
EXTT16=
EXTT17=
EXTT18=
EXTT19=
PLAYORDER=
